<svg width="133" height="157" viewBox="0 0 133 157" fill="none" xmlns="http://www.w3.org/2000/svg">
<g clip-path="url(#clip0_118_611)">
<path d="M95.3271 0C106.257 0.000110405 115.118 8.86908 115.118 19.8096C115.118 23.0091 114.358 26.0308 113.013 28.7061C113.078 28.7054 113.144 28.7041 113.209 28.7041C124.139 28.7043 133 37.5732 133 48.5137C133 59.4542 124.139 68.324 113.209 68.3242C109.962 68.3242 106.897 67.5406 104.193 66.1533C104.24 66.7076 104.266 67.2686 104.266 67.835C104.265 77.315 97.6122 85.2377 88.7246 87.1846C91.3507 90.5463 92.917 94.7779 92.917 99.376C92.9168 108.249 87.0878 115.759 79.0537 118.28C84.601 120.021 89.0957 124.141 91.3477 129.445C94.3593 122.351 101.385 117.377 109.571 117.377C120.502 117.377 129.362 126.246 129.362 137.187C129.362 148.127 120.502 156.996 109.571 156.996C101.385 156.996 94.3592 152.021 91.3477 144.927C88.3361 152.021 81.3121 156.996 73.126 156.996C65.1911 156.996 58.3479 152.322 55.1924 145.574C52.0368 152.321 45.1945 156.996 37.2598 156.996C26.3294 156.996 17.4688 148.127 17.4688 137.187C17.4688 128.602 22.9239 121.293 30.5537 118.543C24.1656 115.257 19.7951 108.596 19.7949 100.912C19.7949 99.4058 19.9631 97.9383 20.2812 96.5283C20.1184 96.5323 19.9548 96.5352 19.791 96.5352C8.8607 96.5349 0 87.6652 0 76.7246C0.000173776 65.9292 8.62744 57.151 19.3574 56.9199C15.8306 53.3427 13.6524 48.4296 13.6523 43.0068C13.6523 32.0661 22.5138 23.1973 33.4443 23.1973C39.7988 23.1973 45.4531 26.195 49.0742 30.8545C50.6471 21.4883 58.7853 14.3525 68.5898 14.3525C71.1901 14.3526 73.6727 14.8552 75.9473 15.7676C77.8119 6.76538 85.7806 0 95.3271 0ZM56.8359 110.628C54.5206 114.737 50.7832 117.936 46.291 119.555C50.1866 121.558 53.3306 124.817 55.1924 128.797C57.5266 123.807 61.8777 119.95 67.1963 118.28C62.9469 116.946 59.3151 114.217 56.8359 110.628ZM52.959 46.3135C51.4096 55.5414 43.4881 62.6037 33.8779 62.8105C37.4052 66.3878 39.5829 71.3015 39.583 76.7246C39.583 78.2307 39.4138 79.6976 39.0957 81.1074C39.2589 81.1034 39.4228 81.1016 39.5869 81.1016C46.341 81.1017 52.3036 84.4892 55.875 89.6582C58.6003 84.8215 63.2972 81.2464 68.874 80.0244C66.2487 76.663 64.6827 72.4323 64.6826 67.835C64.6826 62.3946 66.8739 57.4659 70.4209 53.8857C69.8179 53.9411 69.2073 53.9717 68.5898 53.9717C62.235 53.9717 56.5802 50.9734 52.959 46.3135ZM87.9678 38.2041C87.1765 42.0242 85.2862 45.4409 82.6426 48.1094C83.2458 48.054 83.8569 48.0244 84.4746 48.0244C87.721 48.0244 90.785 48.8067 93.4883 50.1934C93.4418 49.6397 93.417 49.0793 93.417 48.5137C93.417 45.3142 94.1757 42.2923 95.5215 39.6172C95.4568 39.6178 95.392 39.6201 95.3271 39.6201C92.7263 39.6201 90.2428 39.1168 87.9678 38.2041Z" fill="#EE6AB7"/>
</g>
<defs>
<clipPath id="clip0_118_611">
<rect width="133" height="157" fill="white"/>
</clipPath>
</defs>
</svg>
